<?xml version="1.0" encoding="utf-8"?>
<!-- Generator: Adobe Illustrator 15.1.0, SVG Export Plug-In . SVG Version: 6.00 Build 0)  -->
<!DOCTYPE svg PUBLIC "-//W3C//DTD SVG 1.1//EN" "http://www.w3.org/Graphics/SVG/1.1/DTD/svg11.dtd">
<svg version="1.1" id="Lager_1" xmlns="http://www.w3.org/2000/svg" xmlns:xlink="http://www.w3.org/1999/xlink" x="0px" y="0px"
	 width="20px" height="20px" viewBox="390.447 389.685 20 20" enable-background="new 390.447 389.685 20 20" xml:space="preserve">
<symbol  id="Musik" viewBox="-30.953 -30.31 61.905 60.621">
	<path d="M30.874-15.99h0.057v46.146l0.021,0.154l-0.021-0.003v0.003l-0.048-0.009l-44.898-6.012h-0.003v-36.461
		c-1.777,0.568-3.777,0.798-5.862,0.595c-6.597-0.641-11.538-5.337-11.038-10.489c0.501-5.152,6.253-8.813,12.849-8.172
		c6.598,0.642,11.539,5.337,11.038,10.49c-0.009,0.087-0.03,0.171-0.042,0.258h0.057v31.628l30.947,4.521V-8.67
		c-1.777,0.568-3.776,0.798-5.862,0.595c-6.598-0.642-11.54-5.338-11.04-10.49c0.501-5.152,6.253-8.813,12.849-8.172
		c6.598,0.642,11.539,5.337,11.038,10.49C30.907-16.16,30.886-16.077,30.874-15.99z"/>
</symbol>
<ellipse id="Orange_1_" fill="#FFFFFF" cx="400.447" cy="399.685" rx="10" ry="10"/>
<linearGradient id="Blue_1_" gradientUnits="userSpaceOnUse" x1="288.1069" y1="380.3555" x2="308.1074" y2="380.3555" gradientTransform="matrix(1 0 0 -1 102.3398 780.04)">
	<stop  offset="0.6056" style="stop-color:#0000FF;stop-opacity:0"/>
	<stop  offset="0.993" style="stop-color:#0000FF"/>
</linearGradient>
<ellipse id="Blue" fill="url(#Blue_1_)" cx="400.447" cy="399.685" rx="10" ry="10"/>
<linearGradient id="LightBlue_1_" gradientUnits="userSpaceOnUse" x1="291.6797" y1="372.6948" x2="304.5354" y2="388.0157" gradientTransform="matrix(1 0 0 -1 102.3398 780.04)">
	<stop  offset="0.5329" style="stop-color:#00FFFF;stop-opacity:0"/>
	<stop  offset="0.993" style="stop-color:#00FFFF"/>
</linearGradient>
<ellipse id="LightBlue" fill="url(#LightBlue_1_)" cx="400.447" cy="399.685" rx="10" ry="10"/>
<linearGradient id="Red_1_" gradientUnits="userSpaceOnUse" x1="291.6797" y1="372.6948" x2="304.5354" y2="388.0157" gradientTransform="matrix(1 0 0 -1 102.3398 780.04)">
	<stop  offset="0" style="stop-color:#FF0000"/>
	<stop  offset="0.2911" style="stop-color:#FF0000;stop-opacity:0"/>
</linearGradient>
<ellipse id="Red" fill="url(#Red_1_)" cx="400.447" cy="399.685" rx="10" ry="10"/>
<linearGradient id="Green_1_" gradientUnits="userSpaceOnUse" x1="291.6787" y1="388.0156" x2="304.5348" y2="372.6944" gradientTransform="matrix(1 0 0 -1 102.3398 780.04)">
	<stop  offset="0" style="stop-color:#00FF00"/>
	<stop  offset="0.2911" style="stop-color:#00FF00;stop-opacity:0"/>
</linearGradient>
<ellipse id="Green" fill="url(#Green_1_)" cx="400.447" cy="399.685" rx="10" ry="10"/>
<linearGradient id="Purple_1_" gradientUnits="userSpaceOnUse" x1="291.6787" y1="388.0156" x2="304.5348" y2="372.6944" gradientTransform="matrix(1 0 0 -1 102.3398 780.04)">
	<stop  offset="0.5" style="stop-color:#FF00FF;stop-opacity:0"/>
	<stop  offset="1" style="stop-color:#FF00FF"/>
</linearGradient>
<ellipse id="Purple" fill="url(#Purple_1_)" cx="400.447" cy="399.685" rx="10" ry="10"/>
<linearGradient id="Orange_2_" gradientUnits="userSpaceOnUse" x1="288.1069" y1="380.3555" x2="308.1074" y2="380.3555" gradientTransform="matrix(1 0 0 -1 102.3398 780.04)">
	<stop  offset="0" style="stop-color:#FBB03B"/>
	<stop  offset="0.5" style="stop-color:#F7931E;stop-opacity:0"/>
</linearGradient>
<ellipse id="Orange" fill="url(#Orange_2_)" cx="400.447" cy="399.685" rx="10" ry="10"/>
<ellipse fill="#FFFFFF" cx="400.436" cy="390.929" rx="0.931" ry="0.486"/>
<use xlink:href="#Musik"  width="61.905" height="60.621" x="-30.953" y="-30.31" transform="matrix(0.2021 0 0 -0.2065 400.4355 399.6929)" overflow="visible"/>
<ellipse transform="matrix(-0.4377 -0.8991 0.8991 -0.4377 218.7523 920.6988)" fill="#FFFFFF" cx="397.273" cy="391.947" rx="0.638" ry="1.521"/>
<ellipse transform="matrix(-0.6797 -0.7335 0.7335 -0.6797 374.3385 950.6591)" fill="#FFFFFF" cx="394.736" cy="393.596" rx="0.486" ry="0.921"/>
<ellipse transform="matrix(-0.8353 -0.5498 0.5498 -0.8353 504.6329 941.5202)" fill="#FFFFFF" cx="393.348" cy="395.17" rx="0.486" ry="0.626"/>
</svg>
